<svg width="103" height="131" viewBox="0 0 103 131" fill="none" xmlns="http://www.w3.org/2000/svg">
<mask id="mask0_2418_12" style="mask-type:luminance" maskUnits="userSpaceOnUse" x="0" y="0" width="103" height="131">
<path d="M98.53 26.14L56 1.56997C54.6349 0.771136 53.0817 0.350098 51.5 0.350098C49.9183 0.350098 48.3651 0.771136 47 1.56997L4.45 26.14C3.09906 26.9315 1.97801 28.0619 1.19759 29.4193C0.417168 30.7767 0.00437842 32.3142 0 33.88L0 83.05C0.00186952 84.6135 0.413781 86.1493 1.19462 87.5039C1.97547 88.8585 3.09793 89.9847 4.45 90.77L25.75 103.08V128.18C25.7539 128.647 25.8795 129.104 26.1145 129.507C26.3494 129.91 26.6856 130.245 27.0896 130.478C27.4937 130.712 27.9517 130.836 28.4183 130.838C28.8849 130.84 29.3439 130.72 29.75 130.49L98.56 90.79C99.9109 90.0042 101.032 88.8777 101.811 87.5229C102.59 86.1682 103 84.6328 103 83.07V33.87C102.989 32.301 102.568 30.7623 101.778 29.4064C100.989 28.0504 99.8588 26.9244 98.5 26.14H98.53Z" fill="white"/>
</mask>
<g mask="url(#mask0_2418_12)">
<path d="M103 28.73L51.51 58.46L0 28.73V88.19L25.75 103.04V132.78L103 88.19V28.73Z" fill="#195AD7"/>
<path d="M51.51 58.46L0 28.73L51.51 -1L103 28.73L51.51 58.46Z" fill="#4182FF"/>
<path d="M50.59 57.55L0.33 28.53L0 28.73L51.51 58.46L103 28.73L101.79 28.01L50.59 57.55Z" fill="#4182FF"/>
<path d="M51.51 58.8299V58.4599L0.33 28.8999L0 29.0999L51.51 58.8299Z" fill="#4182FF"/>
</g>
</svg>
