<svg width="123" height="126" viewBox="0 0 123 126" fill="none" xmlns="http://www.w3.org/2000/svg">
<path d="M122.296 59.9681C122.296 92.6958 94.9622 119.227 61.2446 119.227C27.5269 119.227 0.193359 92.6958 0.193359 59.9681C0.193359 27.2405 27.5269 0.709473 61.2446 0.709473C94.9622 0.709473 122.296 27.2405 122.296 59.9681Z" fill="#2364E1"/>
<path d="M21.1047 125.204L20.865 101.297L47.1628 114.206L21.1047 125.204Z" fill="#2364E1"/>
<path d="M45.8609 29.936L52.519 45.7812L46.5501 54.0492C53.8988 67.6442 66.4528 73.4926 71.8112 74.7173L79.3895 66.9094L92.4793 72.4209C95.6418 75.4754 95.3307 80.4546 91.3311 85.2811C86.7722 90.7825 75.0262 89.4147 67.4479 86.6589C59.8696 83.9032 47.238 75.1766 39.6597 64.1536C32.0813 53.1306 29.0959 42.1073 34.6074 34.2994C39.0166 28.053 43.9469 28.7878 45.8609 29.936Z" fill="#F2F2F2"/>
</svg>
